<?xml version="1.0"?>
<svg xmlns="http://www.w3.org/2000/svg" xmlns:xlink="http://www.w3.org/1999/xlink" xmlns:svgjs="http://svgjs.com/svgjs" version="1.1" width="512" height="512" x="0" y="0" viewBox="0 0 512 512" style="enable-background:new 0 0 512 512" xml:space="preserve" class=""><g><g xmlns="http://www.w3.org/2000/svg"><g><g><g><g><g><g><g><g><g><circle cx="256" cy="256" fill="#ffffff" r="256" data-original="#ffce00" style="" class=""/></g></g></g></g></g></g></g></g></g><path d="m512 256c0-7.781-.347-15.482-1.027-23.087l-85.258-85.257-34.504 31.779-80.612-80.612-223.39 266.785 145.331 145.331c7.726.702 15.551 1.061 23.46 1.061 141.385 0 256-114.615 256-256z" fill="#ffffff" data-original="#ffa300" style="" class=""/><g><path d="m397.363 132.851h-73.539l-10.352-28.403c-3.731-10.236-13.463-17.047-24.357-17.047h-66.227c-10.895 0-20.627 6.811-24.357 17.047l-10.352 28.403h-73.539c-19.089 0-34.565 15.475-34.565 34.565v177.169c0 19.089 15.475 34.565 34.565 34.565h282.725c19.089 0 34.565-15.475 34.565-34.565v-177.169c-.003-19.09-15.478-34.565-34.567-34.565z" fill="#0071bc" data-original="#707789" style="" class=""/></g><g><path d="m397.363 132.851h-73.539l-10.352-28.403c-3.731-10.236-13.463-17.047-24.357-17.047h-33.269v291.748h141.518c19.089 0 34.565-15.475 34.565-34.565v-177.168c-.002-19.09-15.477-34.565-34.566-34.565z" fill="#0071bc" data-original="#555a66" style="" class=""/></g><g><circle cx="256" cy="258.93" fill="#ffffff" r="104.09" data-original="#9196aa" style="" class=""/></g><g><path d="m256 154.84c-.052 0-.104.002-.156.002v208.177c.052 0 .104.002.156.002 57.487 0 104.09-46.603 104.09-104.09s-46.603-104.091-104.09-104.091z" fill="#0071bc" data-original="#707789" style="" class=""/></g><g><circle cx="256" cy="258.93" fill="#362e32" r="67.283" data-original="#414952" style="" class=""/></g><g><path d="m256 191.647c-.052 0-.104.004-.156.004v134.558c.052 0 .103.004.156.004 37.159 0 67.283-30.124 67.283-67.283s-30.124-67.283-67.283-67.283z" fill="#362e32" data-original="#23272b" style="" class=""/></g><g><path d="m298.353 131.6h-84.706l8.136-23.674h68.434z" fill="#ffffff" data-original="#bec3d2" style="" class=""/></g><g><path d="m290.217 107.926h-34.373v23.674h42.509z" fill="#ffffff" data-original="#9196aa" style="" class=""/></g><g><path d="m355.229 163.31h59.294v33.882h-59.294z" fill="#ffffff" data-original="#9196aa" style="" class=""/></g><g><circle cx="123.266" cy="334.676" fill="#ffffff" r="19.547" data-original="#bec3d2" style="" class=""/></g><g><circle cx="220.677" cy="225.319" fill="#ffffff" r="12.706" data-original="#ffffff" style="" class=""/></g><g><circle cx="236.718" cy="257.166" fill="#ffffff" r="17.661" data-original="#ffffff" style="" class=""/></g></g></g></svg>
